<?xml version="1.0" encoding="UTF-8" standalone="no"?>
<svg width="256" height="256" viewBox="0 0 256 256" fill="none" xmlns="http://www.w3.org/2000/svg">
  <rect width="256" height="256" rx="60" fill="#FF5DA2"/>
  <path d="M128 76C99.28 76 76 99.28 76 128C76 156.72 99.28 180 128 180C156.72 180 180 156.72 180 128C180 99.28 156.72 76 128 76ZM128 168C105.92 168 88 150.08 88 128C88 105.92 105.92 88 128 88C150.08 88 168 105.92 168 128C168 150.08 150.08 168 128 168Z" fill="white"/>
  <path d="M128 100C112.48 100 100 112.48 100 128C100 143.52 112.48 156 128 156C143.52 156 156 143.52 156 128C156 112.48 143.52 100 128 100ZM128 144C119.16 144 112 136.84 112 128C112 119.16 119.16 112 128 112C136.84 112 144 119.16 144 128C144 136.84 136.84 144 128 144Z" fill="white"/>
  <path d="M128 120C123.6 120 120 123.6 120 128C120 132.4 123.6 136 128 136C132.4 136 136 132.4 136 128C136 123.6 132.4 120 128 120Z" fill="white"/>
</svg> 